<svg width="2383" height="1746" viewBox="0 0 2383 1746" fill="none" xmlns="http://www.w3.org/2000/svg">
<path d="M905.761 331.76L887.068 337.495L874.521 308.437L846.162 313.469L833.214 293.255L822.974 299.812L840.292 326.838L867.172 322.078L880.229 352.307L908.36 343.667L905.761 331.76Z" fill="#50BFA5"/>
<path d="M2104.31 1376.71L2085.61 1382.44L2073.07 1353.39L2044.71 1358.41L2031.76 1338.2L2021.53 1344.76L2038.84 1371.77L2065.72 1367.03L2078.77 1397.26L2106.91 1388.61L2104.31 1376.71Z" fill="#50BFA5"/>
<path d="M790.599 1720.67C790.599 1720.67 690.865 1382.64 682.865 1308.08C674.865 1233.51 730.641 1256.61 730.641 1256.61C730.641 1256.61 683.719 1114.53 717.641 1080.81C751.573 1047.09 782.172 1109.95 782.172 1109.95C782.172 1109.95 792.438 937.469 828.615 937.411C895.974 937.292 894.651 1125.51 894.651 1125.51C894.651 1125.51 911.839 1051.83 947.922 1072.03C1002.32 1102.49 924.307 1250.17 924.307 1250.17C924.307 1250.17 993.625 1250.21 1017.97 1285.17C1061.67 1347.88 790.599 1720.67 790.599 1720.67Z" fill="#50BFA5"/>
<path d="M823.198 1675.93C823.198 1675.93 535.692 1627.85 473.161 1576.91C410.625 1525.96 472.52 1503 472.52 1503C472.52 1503 328.093 1428.96 329.76 1378.61C331.437 1328.27 403.187 1353.86 403.187 1353.86C403.187 1353.86 281.494 1215.09 310.307 1188.73C363.958 1139.65 504.651 1283.91 504.651 1283.91C504.651 1283.91 462.88 1215.31 506.864 1204.44C573.229 1188.08 622.187 1357.23 622.187 1357.23C622.187 1357.23 609.744 1290.43 655.494 1299.33C737.588 1315.29 823.198 1675.93 823.198 1675.93Z" fill="#50BFA5"/>
<path d="M655.495 1299.33C609.64 1291.04 622.187 1357.23 622.187 1357.23C622.187 1357.23 573.229 1188.08 506.864 1204.44C462.88 1215.31 504.651 1283.91 504.651 1283.91C504.651 1283.91 363.958 1139.65 310.307 1188.73L822.239 1676.02C813.12 1629.47 732.385 1313.23 655.495 1299.33Z" fill="#3C8F7C"/>
<path d="M905 1715.59C905 1715.59 753.588 1561.61 677.349 1545.57C601.094 1529.55 614.812 1583.79 614.812 1583.79C614.812 1583.79 463.531 1451.49 428.469 1483.55C393.411 1515.6 431.333 1546.55 431.333 1546.55C431.333 1546.55 305.318 1524.23 287.292 1565.57C259.573 1629.1 466.812 1663.69 466.812 1663.69C466.812 1663.69 379.958 1669.72 400.104 1709.56C430.479 1769.64 905 1715.59 905 1715.59Z" fill="#355389"/>
<path d="M287.292 1565.57C305.318 1524.23 431.333 1546.55 431.333 1546.55C431.333 1546.55 393.411 1515.6 428.469 1483.55C463.531 1451.49 610.104 1565.8 610.104 1565.8C610.104 1565.8 575.547 1499.73 651.786 1515.77C728.042 1531.81 905 1715.59 905 1715.59L287.292 1565.57Z" fill="#466EB6"/>
<path d="M1146.05 127.547C1095.08 135.922 1079.95 202.813 1122.32 232.734C1129.93 238.104 1135.2 246.188 1137.44 255.24L1145.15 286.349C1147.28 294.922 1155.62 300.427 1164.35 299L1183.65 295.813C1192.37 294.385 1198.53 286.495 1197.79 277.693C1195.1 245.563 1191.8 233.922 1202.24 219.589C1232.79 177.682 1197.03 119.146 1146.05 127.547Z" fill="#F7CC7F"/>
<path d="M1175.05 172.495C1173.47 176.146 1174.07 180.812 1174.44 186.187C1178.61 183.812 1183.45 180.854 1185.03 176.495C1186.14 173.437 1184.9 169.135 1181.79 168.333C1181.44 168.255 1176.17 169.932 1175.05 172.495ZM1127.81 192.229C1130.41 195.016 1134.76 196.255 1141.1 195.958C1140.02 191.281 1138.39 187.078 1135.17 184.094C1127.92 177.349 1123.47 187.531 1127.81 192.229ZM1151.26 263.531C1147.93 236.016 1143.28 206.948 1141.69 198.708C1112.48 200.318 1123.59 169.531 1137.07 182.052C1140.91 185.614 1142.72 190.453 1143.92 195.76C1153.61 194.88 1163.1 192.12 1171.74 187.651C1171.28 180.864 1170.61 175.719 1172.51 171.375C1175.37 164.812 1183.68 163.026 1187.07 169.427C1188.33 171.828 1188.56 174.896 1187.64 177.437C1185.68 182.864 1179.79 186.453 1174.64 189.255C1176.19 211.135 1178.31 233.187 1180.98 254.896L1178.24 255.239C1175.6 233.88 1173.49 212.187 1171.96 190.651C1163.37 194.922 1154.04 197.599 1144.48 198.495C1146.48 209.042 1150.9 237.359 1154.02 263.198L1151.26 263.531Z" fill="#FAE0B2"/>
<path d="M1137.21 254.469C1137.28 254.719 1137.38 254.974 1137.44 255.239L1145.15 286.349C1147.28 294.922 1155.63 300.427 1164.35 299L1183.65 295.812C1192.38 294.385 1198.53 286.495 1197.79 277.693C1196.6 263.401 1195.28 253.161 1195.1 244.948L1137.21 254.469Z" fill="#96D9C9"/>
<path d="M1108.27 104.307L1093.03 76.4791C1091.56 73.802 1092.55 70.4114 1095.24 68.9478C1097.93 67.4687 1101.31 68.4531 1102.79 71.1458L1118.03 98.9583C1119.49 101.651 1118.51 105.042 1115.81 106.505C1113.1 107.984 1109.73 106.984 1108.27 104.307Z" fill="#FAE0B2"/>
<path d="M1074.96 171.599L1041.73 168.693C1038.68 168.427 1036.41 165.734 1036.69 162.667C1036.96 159.614 1039.65 157.349 1042.71 157.614L1075.93 160.521C1078.98 160.786 1081.26 163.479 1080.98 166.547C1080.72 169.599 1078.03 171.864 1074.96 171.599Z" fill="#FAE0B2"/>
<path d="M1042.03 273.437C1039.86 271.255 1039.88 267.745 1042.07 265.588C1050.24 257.521 1059.21 250.187 1068.76 243.812C1071.31 242.104 1074.76 242.786 1076.47 245.349C1078.17 247.896 1077.49 251.349 1074.93 253.052C1065.97 259.042 1057.55 265.922 1049.88 273.495C1047.71 275.641 1044.19 275.641 1042.03 273.437Z" fill="#FAE0B2"/>
<path d="M1190.35 102.802C1187.39 102.016 1185.63 98.9582 1186.41 95.9999C1190.17 81.9218 1192.48 67.3853 1193.27 52.8385C1193.44 49.7707 1196.05 47.4114 1199.12 47.5885C1202.19 47.7447 1204.53 50.3593 1204.38 53.427C1203.55 68.7603 1201.12 84.0416 1197.16 98.8645C1196.36 101.854 1193.29 103.588 1190.35 102.802Z" fill="#FAE0B2"/>
<path d="M1224.56 145.505C1223.68 142.562 1225.33 139.469 1228.28 138.588L1262.81 128.172C1265.76 127.281 1268.85 128.948 1269.74 131.896C1270.62 134.828 1268.96 137.932 1266.03 138.812L1231.49 149.229C1228.56 150.104 1225.45 148.453 1224.56 145.505Z" fill="#FAE0B2"/>
<path d="M1281.29 237.401C1280.8 237.401 1280.29 237.333 1279.79 237.198C1267.81 233.828 1256.19 229.161 1245.2 223.333C1242.49 221.896 1241.47 218.521 1242.91 215.812C1244.35 213.104 1247.71 212.078 1250.41 213.521C1260.69 218.974 1271.59 223.349 1282.8 226.495C1285.74 227.318 1287.47 230.385 1286.64 233.349C1285.95 235.802 1283.72 237.401 1281.29 237.401Z" fill="#FAE0B2"/>
<path d="M1787.15 483.135L1769.72 441.922L1725.91 432.922C1720.92 431.896 1719.27 425.588 1723.12 422.255L1756.92 392.948L1751.93 348.495C1751.38 343.427 1756.85 339.922 1761.23 342.547L1799.53 365.641L1840.28 347.161C1844.92 345.068 1849.96 349.187 1848.8 354.161L1838.68 397.734L1868.84 430.771C1872.28 434.531 1869.91 440.599 1864.83 441.042L1820.26 444.88L1798.16 483.771C1795.64 488.198 1789.14 487.812 1787.15 483.135Z" fill="#F7CC7F"/>
<path d="M2064.52 341.76L2057.36 370.599L2009.67 364.198L1994 405.078L1957.53 406.135L1958.07 424.588L2006.83 423.187L2021.69 384.453L2071.29 391.104L2082.07 347.693L2064.52 341.76Z" fill="#F48C7F"/>
<path d="M1639.68 1724.45H801.479C769.469 1724.45 743.521 1697.53 743.521 1664.33V1628.57C743.521 1595.38 769.469 1568.45 801.479 1568.45H1639.68C1601.35 1611.92 1600.68 1678.35 1638.15 1722.64L1639.68 1724.45Z" fill="#B75742"/>
<path d="M1626.74 1586.33H1161.83C1129.81 1586.33 1103.86 1613.26 1103.86 1646.45C1103.86 1679.67 1129.81 1706.57 1161.83 1706.57H1626.79C1605.05 1669.69 1605.09 1623.12 1626.74 1586.33Z" fill="#FAE0B2"/>
<path d="M1345.21 1460.1C1346.43 1457.83 1344.57 1455.17 1341.76 1455.17H898.24C863.469 1455.17 835.292 1480.53 835.292 1511.83C835.292 1543.1 863.469 1568.48 898.24 1568.48H1341.88C1344.71 1568.48 1346.57 1565.81 1345.33 1563.52C1327.77 1530.77 1327.81 1492.71 1345.21 1460.1Z" fill="#86B1F2"/>
<path d="M1342.41 1465.72H1122.6C1081.8 1465.72 1048.73 1486.97 1048.73 1513.19C1048.73 1539.41 1081.8 1560.67 1122.6 1560.67H1343.85C1328.73 1530.45 1328.32 1496.05 1342.41 1465.72Z" fill="#F7CC7F"/>
<path d="M1285.64 1488.23H1257.02C1250.86 1488.23 1245.86 1490.29 1245.86 1492.84V1493.26H1285.64V1488.23Z" fill="#B75742"/>
<path d="M1310.07 1499.8C1310.07 1493.4 1302.59 1488.23 1293.36 1488.23H1256.62C1263.63 1488.23 1269.29 1492.16 1269.29 1497L1269.12 1621.12L1289.41 1605.16L1310.1 1621.12L1310.07 1499.8Z" fill="#F47458"/>
<path d="M1263.67 1451.09H1005.6C982.719 1451.09 964.172 1429.07 964.172 1401.91C964.172 1374.74 982.719 1352.73 1005.6 1352.73H1263.67C1243.95 1380 1243.17 1419.98 1261.83 1448.29L1263.67 1451.09Z" fill="#FAE0B2"/>
<path d="M964.198 1401.91C964.198 1374.74 983.188 1352.73 1006.61 1352.73H1268.59C1269.81 1352.73 1270.8 1351.57 1270.79 1350.16C1270.77 1348.76 1269.79 1347.64 1268.59 1347.64H852.984C827.146 1347.64 806.188 1371.93 806.188 1401.91C806.188 1431.9 827.146 1456.19 852.984 1456.19H1268.59C1269.79 1456.19 1270.77 1455.05 1270.79 1453.67C1270.8 1452.24 1269.8 1451.09 1268.59 1451.09H1006.61C983.188 1451.09 964.198 1429.07 964.198 1401.91Z" fill="#466EB6"/>
<path d="M1218.6 1376.9H1189.97C1183.83 1376.9 1178.83 1378.93 1178.83 1381.43V1381.84H1218.6V1376.9Z" fill="#184655"/>
<path d="M1243.03 1388.26C1243.03 1381.98 1235.55 1376.9 1226.32 1376.9H1189.59C1196.59 1376.9 1202.26 1380.76 1202.26 1385.51L1202.08 1507.23L1222.38 1491.57L1243.07 1507.23L1243.03 1388.26Z" fill="#3C8F7C"/>
<path d="M1674.84 625.068L1712.93 615.042L1687.12 959.437L1641.41 960.958L1664.47 637.573C1664.9 631.614 1669.07 626.588 1674.84 625.068Z" fill="#184655"/>
<path d="M1690.53 969.255C1689.68 969.333 1688.81 969.318 1687.92 969.213C1680.36 968.318 1674.76 960.802 1675.41 952.411L1700.77 628.573C1701.43 620.187 1708.09 614.104 1715.67 615C1723.23 615.896 1728.83 623.411 1728.17 631.812L1702.81 955.651C1702.23 963.052 1696.96 968.667 1690.53 969.255Z" fill="#F7CC7F"/>
<path d="M1339.91 986.505C1339.92 986.745 1339.93 986.974 1339.96 987.213C1341.15 1000.39 1351.36 1010.26 1362.74 1009.23L1684.49 980.427C1695.9 979.411 1704.16 967.906 1702.97 954.734C1702.92 954.172 1702.85 953.625 1702.76 953.078L1339.91 986.505Z" fill="#F7CC7F"/>
<path d="M1563.95 1334.35C1542.88 1346.03 1478.48 1325.55 1478.48 1323.69C1477.56 1341.29 1406.38 1513.56 1406.38 1513.56L1406.43 1566.56C1406.43 1566.56 1553.1 1573.55 1551 1560.59C1548.9 1547.62 1541 1556.05 1511.74 1531.57C1509.15 1529.4 1468.07 1519.86 1479.17 1495.55C1501.57 1446.57 1549.12 1364.92 1563.95 1334.35Z" fill="#F7A491"/>
<path d="M1401.6 1568.45L1562.17 1568.49C1567.96 1567.91 1569.32 1563.19 1567.27 1560.32C1563.05 1554.43 1532.28 1540.51 1511.6 1531.28C1475.57 1535.48 1412.24 1521.62 1406.44 1513.41C1391.19 1533.84 1398.37 1567.79 1401.6 1568.45Z" fill="#3C8F7C"/>
<path d="M1366.39 1210.67C1364.21 1204.15 1504.62 1144.56 1510.91 1151.37C1522.03 1163.41 1434.93 1389.47 1434.93 1389.47L1535 1420.04C1535 1420.04 1639.02 1158.88 1634.67 1111.1C1630.33 1063.35 1578.23 1009.07 1465.32 1043.8C1352.41 1078.55 1366.39 1210.67 1366.39 1210.67Z" fill="#355389"/>
<path d="M1657.1 1364.05C1633.4 1359.74 1602.68 1358.52 1578.08 1358.09C1580.98 1379.98 1595.05 1492.27 1592.48 1499.17C1582.07 1527.12 1558.95 1540.2 1558.95 1540.2C1558.95 1540.2 1667.97 1638.57 1674.55 1627.21C1681.14 1615.85 1669.69 1617.38 1662.57 1579.9C1661.95 1576.56 1646.17 1524.24 1645.2 1496.03C1643.33 1442.21 1656.29 1393.95 1657.1 1364.05Z" fill="#F7A491"/>
<path d="M1622.12 996.719C1606.91 988.614 1567.43 988.318 1524.02 991.135C1439.36 996.625 1355.8 1013.28 1275.28 1039.96L1221.4 1057.8L1221.57 1002.56C1221.57 1002.56 1050.16 973.88 1044.19 1016.36C1035.21 1080.33 1046.36 1210.23 1103.47 1239.21C1280.86 1329.27 1529.47 1095.76 1530.37 1126.31C1531.57 1167.33 1566.16 1320.02 1575.02 1386.85C1599.6 1387.28 1641.85 1387.27 1660.19 1383.05C1663.74 1252.1 1665.41 1019.83 1622.12 996.719Z" fill="#466EB6"/>
<path d="M1555.61 1542.51L1678.19 1640.4C1683.04 1643.63 1687.07 1640.84 1687.31 1637.32C1687.79 1630.08 1672.8 1599.81 1662.65 1579.57C1632.12 1559.98 1591.84 1508.93 1592.57 1498.91C1579.64 1509.81 1553.55 1539.93 1555.61 1542.51Z" fill="#3C8F7C"/>
<path d="M1278.2 462.734C1274.09 425.094 1269.74 387.318 1238.56 359.734C1213.31 337.411 1181.21 333.625 1149.47 345.573C1059.53 379.411 1105.86 459.281 991.198 539.812C955.562 564.838 916.292 581.958 889.469 615.651C851.906 662.828 866.094 719.547 900.307 757.427C1064.07 938.651 1246.88 693.906 1260.02 635.146C1269.77 591.437 1280.85 486.958 1278.2 462.734Z" fill="#13375B"/>
<path d="M1244.95 674.359C1231.57 649.708 1217.8 630.135 1217.8 630.135C1203.92 605.469 1168.08 593 1168.08 593C1168.08 593 1156.09 593.24 1142.32 593.922C1141.47 596.198 1140.6 597.828 1139.72 598.479C1134.55 602.359 1104.9 597.359 1085.74 610.359C1021.55 665.385 1039.31 932.12 1044.35 1016.36L1239.86 1018.21C1239.86 1018.21 1215.21 836.948 1254.93 790.375C1282.6 757.948 1264.8 710.948 1244.95 674.359Z" fill="#50BFA5"/>
<path d="M1156.83 502.76C1156.83 502.76 1146.08 579.505 1138.57 598.161C1131.07 616.812 1179.84 656.693 1220.43 668.812C1261.02 680.922 1208.03 627.615 1209.71 607.667C1211.39 587.734 1218.77 493.333 1218.77 493.333L1156.83 502.76Z" fill="#F7A491"/>
<path d="M1216.72 520.401C1217.91 504.786 1218.77 493.333 1218.77 493.333L1156.83 502.76C1156.83 502.76 1155.27 511.771 1153.53 524.521C1178.65 539.094 1201.23 534.495 1216.72 520.401Z" fill="#F47458"/>
<path d="M1176.26 362.573C1176.26 362.573 1151.84 368.078 1136.76 391.078C1121.69 414.078 1111.35 481.812 1161 513.427C1210.64 545.042 1249.26 500.318 1249.9 456.708C1250.53 413.078 1241.19 354.88 1176.26 362.573Z" fill="#F7A491"/>
<path d="M1261.27 443.052C1257.03 453.573 1248.62 460.104 1242.49 457.641C1236.36 455.172 1234.83 444.641 1239.07 434.12C1243.29 423.588 1251.69 417.052 1257.83 419.531C1263.96 422 1265.49 432.531 1261.27 443.052Z" fill="#F7A491"/>
<path d="M1183.57 361.146C1183.57 361.146 1152.45 430.958 1125.1 437.187C1097.76 443.427 1098.16 478.562 1098.16 478.562C1098.16 478.562 1098.76 397.427 1124.4 378.828C1150.03 360.213 1183.57 361.146 1183.57 361.146Z" fill="#13375B"/>
<path d="M1135.97 451.708C1139.57 463.042 1136.28 474.198 1128.61 476.641C1120.95 479.068 1111.81 471.854 1108.21 460.521C1104.61 449.172 1107.91 438.016 1115.57 435.588C1123.24 433.146 1132.37 440.359 1135.97 451.708Z" fill="#F7A491"/>
<path d="M1485.67 955.734C1473.93 951.495 1456.48 950.958 1456.77 949.411C1457.95 943.146 1509.77 963.255 1502.77 954.104C1498.86 949.016 1460.09 930.974 1450.65 933.948C1441.51 936.838 1381.45 953.693 1381.45 953.693L1217.31 915.229C1217.31 915.229 1175.88 821.078 1171.83 740.187C1137.59 744.828 1114.27 753.281 1084.51 769.802C1098.85 847.161 1133.74 972.547 1172.32 996.078C1188.53 1005.97 1382.27 984.229 1382.27 984.229C1382.27 984.229 1424.96 981.213 1431.93 978.531C1437.23 976.495 1450.85 968.828 1458.26 966.719C1475.1 961.958 1505.1 973.932 1505.2 970.625C1505.27 968.229 1497.65 960.068 1485.67 955.734Z" fill="#F7A491"/>
<path d="M1172.84 653.76C1171.26 628.88 1161.83 604.839 1135.35 597.104C1118.93 592.307 1100.52 596.896 1087.4 607.615C1071.8 620.359 1067.44 640.802 1067.52 660.146C1067.68 704.094 1070.68 749.641 1078.71 792.906C1108.47 776.385 1143.21 766.453 1177.47 761.812C1177.45 761.562 1174.92 686.651 1172.84 653.76Z" fill="#96D9C9"/>
<path d="M664.266 700.734L409.786 653.349C404.682 652.385 401.307 647.479 402.255 642.359L434.135 471.172C435.094 466.068 440 462.693 445.12 463.641L699.589 511.026C704.708 511.974 708.078 516.896 707.12 522L675.24 693.198C674.292 698.307 669.375 701.682 664.266 700.734Z" fill="#F7CC7F"/>
<path d="M543.136 505.026L465.667 490.599C460.563 489.641 457.188 484.734 458.136 479.615L462.985 453.573C463.948 448.453 468.854 445.078 473.974 446.042L551.427 460.469C556.547 461.411 559.906 466.333 558.958 471.437L554.104 497.495C553.162 502.599 548.24 505.974 543.136 505.026Z" fill="#F7CC7F"/>
<path d="M675.854 694.187C674.531 698.864 669.854 701.771 665.068 700.88L408.932 653.187C404.172 652.292 400.854 647.932 401.281 643.104L414.682 489.651C414.922 487.016 416.255 484.588 418.359 482.974C420.479 481.375 423.172 480.734 425.786 481.213L710.333 534.198C712.932 534.693 715.213 536.239 716.599 538.495C718 540.745 718.385 543.469 717.667 546.016L675.854 694.187Z" fill="#FAE0B2"/>
<path d="M1843.05 133.469L1799.48 145.375L1790.09 92.5623L1804.35 90.0259L1810.96 127.213L1839.24 119.495L1843.05 133.469Z" fill="#50BFA5"/>
<path d="M454.745 858.708C465.667 857.812 482.411 862.625 489.932 867.719C491.052 868.771 499.693 872.213 508.682 887.094L506.651 888.495C497.187 878.573 490.812 876.349 483.213 874.068C470.708 870.854 458.094 873.255 457.068 873.812L454.745 858.708Z" fill="#355389"/>
<path d="M507.666 887.786C507.666 887.786 441.172 898.88 447.375 950.828C453.573 1002.77 523.719 1043.17 586.333 1011.05C670.547 967.838 637.281 857.958 577.333 849.469C517.401 840.974 507.666 887.786 507.666 887.786Z" fill="#F47458"/>
<path d="M535.88 864.922C535.88 864.922 553.229 847.104 591.229 863.307C629.24 879.505 631.984 955.068 598.094 950.682C564.187 946.292 508.771 875.812 535.88 864.922Z" fill="#F48C7F"/>
<path d="M993.281 174.854L719.813 272.401C711 275.547 701.307 270.948 698.162 262.135L647.693 120.641C644.547 111.828 649.146 102.12 657.958 98.9843L931.427 1.42699C940.24 -1.70843 949.932 2.88011 953.078 11.6926L1003.55 153.198C1006.69 162.016 1002.1 171.708 993.281 174.854Z" fill="#86B1F2"/>
<path d="M812.026 138.479C822.078 166.667 807.385 197.682 779.188 207.734C751 217.786 720 203.094 709.932 174.896C699.88 146.708 714.589 115.708 742.771 105.641C770.958 95.5886 801.974 110.292 812.026 138.479Z" fill="white"/>
<path d="M768.745 130.896C771.719 139.213 767.375 148.349 759.068 151.318C750.745 154.281 741.615 149.948 738.641 141.641C735.682 133.318 740.016 124.172 748.334 121.213C756.641 118.255 765.787 122.588 768.745 130.896Z" fill="#86B1F2"/>
<path d="M794.787 175.453L746.693 192.615L744.76 187.213C741.255 177.375 746.385 166.531 756.24 163.026L768.667 158.588C778.521 155.078 789.349 160.213 792.865 170.068L794.787 175.453Z" fill="#86B1F2"/>
<path d="M818.76 108.896C815.854 108.896 813.239 107.052 812.255 104.307C810.974 100.719 812.854 96.7603 816.437 95.4791L935.984 52.8385C936.734 52.5728 937.521 52.427 938.307 52.427C941.229 52.427 943.838 54.2812 944.812 57.026C946.094 60.6145 944.229 64.5728 940.625 65.8541L821.094 108.495C820.333 108.76 819.562 108.896 818.76 108.896Z" fill="white"/>
<path d="M851.042 138.708C848.12 138.708 845.505 136.854 844.521 134.104C843.24 130.521 845.12 126.562 848.719 125.281L942.078 91.9738C942.828 91.7082 943.615 91.5728 944.401 91.5728C947.318 91.5728 949.932 93.4113 950.906 96.1613C951.531 97.8957 951.437 99.7707 950.651 101.437C949.854 103.104 948.469 104.375 946.719 104.984L853.359 138.292C852.615 138.562 851.828 138.708 851.042 138.708Z" fill="white"/>
<path d="M1418.19 1242.16H757.864C737.359 1242.16 720.745 1258.79 720.745 1279.29V1310.52C720.745 1331.03 737.359 1347.65 757.864 1347.65H1418.19L1417.84 1347.29C1389.6 1317.9 1389.74 1271.39 1418.19 1242.16Z" fill="#F47458"/>
<path d="M1406.51 1257.77H1053.51C1033 1257.77 1016.38 1274.4 1016.38 1294.91C1016.38 1315.41 1033 1332.04 1053.51 1332.04H1406.49C1393.52 1309.04 1393.53 1280.74 1406.51 1257.77Z" fill="#FAE0B2"/>
<path d="M1958.62 1245.2L1908.57 1119.62C1906.05 1113.31 1909.14 1106.15 1915.45 1103.62L2095.56 1031.84C2101.88 1029.32 2109.04 1032.4 2111.56 1038.72L2161.61 1164.29C2164.14 1170.61 2161.05 1177.77 2154.73 1180.29L1974.62 1252.08C1968.31 1254.6 1961.15 1251.52 1958.62 1245.2Z" fill="#FAE0B2"/>
<path d="M2128.53 1172.59L2083.55 1059.74C2082.83 1057.93 2083.71 1055.88 2085.52 1055.16C2087.33 1054.44 2089.39 1055.32 2090.12 1057.14L2135.09 1169.97C2135.81 1171.79 2134.93 1173.84 2133.12 1174.56C2131.31 1175.28 2129.26 1174.4 2128.53 1172.59Z" fill="#466EB6"/>
<path d="M2107.09 1157.72L2070.17 1065.08C2069.45 1063.27 2070.33 1061.21 2072.15 1060.49C2073.96 1059.76 2076.02 1060.65 2076.73 1062.47L2113.67 1155.1C2114.39 1156.92 2113.51 1158.97 2111.69 1159.71C2109.88 1160.43 2107.83 1159.55 2107.09 1157.72Z" fill="#466EB6"/>
<path d="M2101.77 1183.26L2056.79 1070.41C2056.07 1068.6 2056.95 1066.55 2058.76 1065.83C2060.57 1065.09 2062.64 1065.98 2063.36 1067.8L2108.33 1180.64C2109.05 1182.45 2108.17 1184.51 2106.36 1185.23C2104.55 1185.95 2102.49 1185.07 2101.77 1183.26Z" fill="#466EB6"/>
<path d="M2078.14 1162.84L2043.41 1075.74C2042.69 1073.93 2043.57 1071.88 2045.39 1071.16C2047.2 1070.43 2049.26 1071.32 2049.97 1073.14L2084.69 1160.23C2085.41 1162.04 2084.53 1164.09 2082.72 1164.81C2080.91 1165.53 2078.85 1164.65 2078.14 1162.84Z" fill="#466EB6"/>
<path d="M2127.32 1047.71L2126.41 1045.44C2126.08 1044.6 2125.17 1044.17 2124.39 1044.49L2107.29 1051.31C2106.51 1051.61 2106.14 1052.56 2106.47 1053.39L2107.37 1055.67C2107.71 1056.49 2108.61 1056.92 2109.4 1056.61L2126.49 1049.8C2127.28 1049.48 2127.65 1048.55 2127.32 1047.71Z" fill="#355389"/>
<path d="M2131.2 1057.43L2130.29 1055.16C2129.96 1054.32 2129.05 1053.9 2128.26 1054.21L2111.16 1061.03C2110.37 1061.33 2110.02 1062.27 2110.35 1063.1L2111.26 1065.39C2111.59 1066.21 2112.49 1066.64 2113.28 1066.33L2130.37 1059.52C2131.16 1059.2 2131.53 1058.27 2131.2 1057.43Z" fill="#355389"/>
<path d="M2135.07 1067.15L2134.16 1064.88C2133.83 1064.04 2132.92 1063.61 2132.14 1063.93L2115.04 1070.74C2114.26 1071.05 2113.88 1071.98 2114.21 1072.83L2115.12 1075.1C2115.45 1075.93 2116.36 1076.36 2117.15 1076.05L2134.26 1069.23C2135.03 1068.92 2135.4 1067.98 2135.07 1067.15Z" fill="#355389"/>
<path d="M2138.95 1076.86L2138.04 1074.6C2137.71 1073.76 2136.8 1073.33 2136.02 1073.65L2118.92 1080.47C2118.14 1080.77 2117.76 1081.71 2118.09 1082.55L2119 1084.83C2119.33 1085.65 2120.24 1086.08 2121.03 1085.76L2138.12 1078.95C2138.91 1078.64 2139.28 1077.71 2138.95 1076.86Z" fill="#355389"/>
<path d="M2142.81 1086.59L2141.91 1084.32C2141.57 1083.48 2140.67 1083.05 2139.88 1083.38L2122.79 1090.19C2122 1090.49 2121.64 1091.43 2121.96 1092.27L2122.86 1094.53C2123.2 1095.38 2124.12 1095.8 2124.91 1095.48L2142 1088.67C2142.79 1088.36 2143.15 1087.43 2142.81 1086.59Z" fill="#355389"/>
<path d="M2146.69 1096.31L2145.79 1094.04C2145.45 1093.2 2144.55 1092.77 2143.76 1093.09L2126.67 1099.91C2125.88 1100.21 2125.51 1101.15 2125.84 1101.98L2126.74 1104.26C2127.08 1105.09 2127.98 1105.52 2128.77 1105.2L2145.86 1098.39C2146.65 1098.08 2147.03 1097.15 2146.69 1096.31Z" fill="#355389"/>
<path d="M2150.56 1106.03L2149.65 1103.76C2149.32 1102.92 2148.41 1102.49 2147.63 1102.81L2130.53 1109.62C2129.74 1109.93 2129.39 1110.86 2129.72 1111.71L2130.63 1113.97C2130.96 1114.81 2131.86 1115.24 2132.65 1114.92L2149.74 1108.1C2150.53 1107.8 2150.9 1106.86 2150.56 1106.03Z" fill="#355389"/>
<path d="M2154.44 1115.74L2153.53 1113.48C2153.2 1112.64 2152.29 1112.21 2151.51 1112.53L2134.41 1119.35C2133.62 1119.65 2133.26 1120.59 2133.59 1121.43L2134.49 1123.69C2134.83 1124.53 2135.73 1124.96 2136.52 1124.64L2153.61 1117.83C2154.4 1117.52 2154.77 1116.59 2154.44 1115.74Z" fill="#355389"/>
<path d="M2158.31 1125.47L2157.4 1123.2C2157.07 1122.36 2156.16 1121.93 2155.38 1122.26L2138.28 1129.07C2137.49 1129.37 2137.14 1130.31 2137.47 1131.15L2138.38 1133.41C2138.71 1134.26 2139.61 1134.68 2140.4 1134.36L2157.49 1127.55C2158.28 1127.24 2158.64 1126.31 2158.31 1125.47Z" fill="#355389"/>
<path d="M2162.19 1135.19L2161.28 1132.92C2160.95 1132.08 2160.04 1131.65 2159.26 1131.97L2142.16 1138.79C2141.38 1139.09 2141 1140.03 2141.33 1140.86L2142.24 1143.14C2142.57 1143.97 2143.48 1144.4 2144.27 1144.08L2161.36 1137.27C2162.15 1136.96 2162.52 1136.03 2162.19 1135.19Z" fill="#355389"/>
<path d="M2166.05 1144.91L2165.15 1142.63C2164.83 1141.8 2163.92 1141.38 2163.12 1141.69L2146.03 1148.51C2145.24 1148.81 2144.88 1149.74 2145.21 1150.59L2146.12 1152.85C2146.45 1153.69 2147.36 1154.12 2148.15 1153.8L2165.24 1146.98C2166.03 1146.68 2166.39 1145.74 2166.05 1144.91Z" fill="#355389"/>
<path d="M2169.93 1154.62L2169.03 1152.35C2168.69 1151.52 2167.79 1151.09 2167 1151.4L2149.91 1158.23C2149.12 1158.53 2148.74 1159.47 2149.08 1160.31L2149.98 1162.57C2150.32 1163.41 2151.23 1163.84 2152.02 1163.52L2169.1 1156.71C2169.9 1156.39 2170.27 1155.47 2169.93 1154.62Z" fill="#355389"/>
<path d="M2217.16 1144.63L2145.68 1246.41C2145.52 1246.64 2145.39 1246.9 2145.31 1247.16L2138.02 1269.52C2137.17 1272.12 2140.17 1274.28 2142.36 1272.63L2161.49 1258.2C2161.73 1258.03 2161.93 1257.81 2162.1 1257.57L2233.77 1155.52C2234.69 1154.21 2234.33 1152.41 2232.98 1151.56L2220.96 1143.86C2219.69 1143.07 2218.03 1143.4 2217.16 1144.63Z" fill="#B75742"/>
<path d="M2162.03 1257.68L2161.85 1257.93L2143.39 1271.85L2138.36 1268.48L2145.27 1247.28C2150.67 1250.24 2157.15 1253.28 2162.03 1257.68Z" fill="#F7CC7F"/>
<path d="M1492.96 42.6665C1503.26 50.88 1521.16 77.3071 1543.98 95.854C1557.35 106.708 1567.64 103.948 1584.69 106.015C1665.6 115.786 1643.68 132.318 1653.39 133.948C1650.62 140.292 1625.41 193.88 1620.71 204.708C1616.36 214.693 1608.85 219.161 1597.97 217.667C1581.24 215.349 1564.36 213.625 1547.88 210.052C1505.65 200.896 1482.16 179.771 1451.9 154.135C1443.86 147.318 1441.9 138.838 1446.05 129.213C1465.43 84.453 1490.86 46.7863 1492.96 42.6665Z" fill="#466EB6"/>
<path d="M1662.15 198.411C1661.79 216.042 1663.14 219.588 1655.56 216.906C1651 215.292 1646.59 213.198 1642.28 210.974C1639.26 209.411 1639.14 207.349 1641.6 204.864C1645.19 201.255 1648.88 197.745 1652.47 194.239C1649.84 187.318 1652.85 179.281 1659.32 175.495C1660.64 174.719 1659.68 176.359 1670.95 150.427C1633.68 145.828 1607.39 142.745 1561.93 137.161C1549.79 135.667 1538.97 130.932 1529.57 123.068C1497.09 95.9061 1464.63 68.7342 1432.19 41.5467C1427.79 37.854 1427.23 32.4373 1430.72 28.2811C1433.4 25.104 1436.93 24.9478 1440.74 25.4269C1451.12 26.7342 1552.84 39.3592 1563.17 40.5728C1576.74 42.1613 1588.69 47.2655 1599.19 56.0519C1631.08 82.7707 1663.07 109.385 1695 136.042C1699.39 139.708 1700.57 143.068 1699.03 147.135C1697.33 151.599 1693.64 153.734 1688.07 152.531C1684.03 151.651 1682.26 152.88 1680.86 156.614C1674.6 173.469 1670.23 177.198 1671.73 183.359C1672.91 188.12 1667.26 196.349 1662.15 198.411Z" fill="#86B1F2"/>
<path d="M1830.91 1396.19L1849.44 1413.86C1893.29 1455.69 1929.05 1505.24 1954.92 1560.03L1957.76 1566.04C1957.76 1566.04 2006.31 1570.33 2013.08 1526.44C1970.49 1478.36 1935.44 1427.02 1906.51 1369.91L1897.73 1349.39L1830.91 1396.19Z" fill="#466EB6"/>
<path d="M1897.68 1349.33C1900.07 1352.74 1887.05 1365.95 1868.6 1378.8C1850.16 1391.67 1833.19 1399.48 1830.81 1396.07C1828.43 1392.65 1841.53 1379.29 1859.97 1366.44C1878.41 1353.57 1895.31 1345.91 1897.68 1349.33Z" fill="#86B1F2"/>
<path d="M1897.76 1349.45L1897.71 1349.39C1897.71 1349.39 1860.74 1380.67 1845.52 1383.85L1850.23 1390.26C1855.79 1387.26 1862.1 1383.35 1868.6 1378.8C1886.84 1366.09 1899.76 1353.05 1897.76 1349.45Z" fill="#355389"/>
<path d="M1947.14 1440.27C1947.2 1445.65 1945.14 1468.93 1906.41 1478.64C1908.96 1482.1 1911.47 1485.61 1913.92 1489.15C1938.43 1481.9 1949.45 1469.32 1954.41 1459.73C1955.19 1458.23 1956.14 1456.19 1956.76 1454.61C1953.49 1449.86 1950.28 1445.09 1947.14 1440.27Z" fill="#B75742"/>
<path d="M1909.9 1471.76L1852.91 1469.72L1866.41 1481.19L1858.35 1495.83L1912.28 1482.08L1909.9 1471.76Z" fill="#B75742"/>
<path d="M1915.08 1485.02L1894.84 1520.28L1909.08 1514.86L1914.56 1526.07L1924.08 1488.97L1915.08 1485.02Z" fill="#B75742"/>
<path d="M1922.81 1494.57C1912.81 1495.28 1904.1 1487.49 1903.37 1477.19C1902.64 1466.88 1910.16 1457.95 1920.17 1457.24C1930.17 1456.53 1938.88 1464.32 1939.61 1474.62C1940.35 1484.93 1932.83 1493.86 1922.81 1494.57Z" fill="#F47458"/>
<path d="M2043.77 694.349L1923.77 587.266C1915.97 580.307 1919.21 565.984 1929.97 559.896L2025.74 505.667C2031.88 502.198 2038.79 502.521 2043.23 506.495L2163.23 613.573C2171.03 620.531 2167.79 634.839 2157.03 640.932L2061.26 695.161C2055.12 698.641 2048.21 698.318 2043.77 694.349Z" fill="#9BC1F9"/>
<path d="M2038.08 609.161L2028.08 526.896C2027.69 523.745 2029.98 520.375 2033.2 519.375C2036.41 518.375 2039.33 520.12 2039.72 523.266L2048.92 598.974L2139.92 620.974C2142.88 621.693 2144.26 624.896 2142.97 628.12C2141.69 631.349 2138.24 633.385 2135.27 632.667L2038.08 609.161Z" fill="white"/>
<path d="M12.224 1723.47C5.80208 1723.47 0.59375 1729.49 0.59375 1736.93C0.59375 1744.36 5.80208 1750.39 13.6146 1741.35H2377.1C2380.14 1741.35 2382.59 1737.39 2382.6 1732.47C2382.63 1727.51 2380.16 1723.47 2377.1 1723.47H12.224Z" fill="#184655"/>
<path d="M471.068 232.318L483.469 256.865L511.495 255.958L523.453 284.437L553 274.281L567.948 305.896L596.307 299.88L615.651 327.958L605.026 335.281L590.563 314.292L560.625 320.641L546.266 290.24L516.229 300.588L503.026 269.146L475.667 270.026L464.161 247.281L446.318 251.625L443.266 239.078L471.068 232.318Z" fill="#F7CC7F"/>
<path d="M1971.8 860.026L1997.27 870.375L2017.8 851.281L2045.53 864.906L2061.14 837.828L2093.17 851.854L2110.61 828.693L2143.64 837.146L2140.44 849.641L2115.74 843.333L2097.35 867.771L2066.55 854.292L2050.68 881.828L2020.08 866.786L2000.03 885.427L1976.43 875.839L1965.81 890.839L1955.28 883.385L1971.8 860.026Z" fill="#50BFA5"/>
</svg>
