<svg width="3780" height="2147" viewBox="0 0 3780 2147" fill="none" xmlns="http://www.w3.org/2000/svg">
<g clip-path="url(#clip0_101_102)">
<rect width="3780" height="2147" fill="#679BFF"/>
<path d="M289.969 2140.03C289.969 2140.03 -158.464 1599.84 60.6926 1043.73C203.547 681.24 739.411 482.615 1041.83 681.24C1170.63 765.839 1583.86 684.094 1804.51 333.854C2233.27 -346.745 3729.65 66.5885 3457.23 1111.55C3325.4 1617.24 3858.45 1635.61 3586.84 2141.09L289.969 2140.03Z" fill="#679BFF"/>
<path d="M621.906 1250.98C621.906 1250.98 576.682 1198.23 619.12 1164.71C619.12 1164.71 650.12 1145.95 675.396 1147.47C675.396 1147.47 639.578 1207.52 651.167 1213.49C662.75 1219.47 686.25 1143.71 686.25 1143.71C686.25 1143.71 756.792 1136.86 779.479 1147.77C779.479 1147.77 719.177 1197.12 731.88 1200.05C744.578 1203 809.714 1154.56 809.714 1154.56C809.714 1154.56 875.37 1165.73 871.87 1205.79C868.365 1245.83 845.745 1258.2 835.802 1257.14C825.86 1256.07 767.698 1233.86 766.427 1242.02C765.162 1250.16 800.172 1276.79 824.693 1278.03C824.693 1278.03 778.401 1329.08 747.641 1314.35C716.875 1299.61 714.25 1276.27 695.073 1267.51C675.901 1258.74 659.531 1258.76 667.448 1267.69C675.365 1276.62 710.068 1285.31 721.037 1304.71C732 1324.1 741.839 1337.19 710.016 1332.4C678.188 1327.61 626.448 1304.32 624.177 1277.65C621.906 1250.98 621.906 1250.98 621.906 1250.98Z" fill="#9FC1F4"/>
<path d="M839.61 1206.86C839.61 1206.86 661.287 1199.98 621.906 1250.98C621.906 1250.98 613.198 1277.07 586.401 1300.83L582.224 1312.21C582.224 1312.21 613.125 1279.62 624.177 1277.65C624.177 1277.65 606.886 1214.48 839.61 1206.86Z" fill="#9FC1F4"/>
<path d="M586.401 1300.83C586.401 1300.83 548.125 1329.14 545.464 1379.71L552.412 1380.33C552.412 1380.33 564.635 1328.03 586.734 1307.59C608.828 1287.14 586.401 1300.83 586.401 1300.83Z" fill="#C8DBF4"/>
<path d="M463.781 1184.63C463.781 1184.63 535.724 1144.35 502.151 1089.67C502.151 1089.67 475.292 1056.09 446.516 1047.47C446.516 1047.47 461.865 1129 446.516 1130.92C431.167 1132.84 435.964 1038.83 435.964 1038.83C435.964 1038.83 360.182 1002.38 330.448 1005.26C330.448 1005.26 377.448 1084.86 362.099 1082.95C346.755 1081.04 293.995 1000.45 293.995 1000.45C293.995 1000.45 216.297 986.068 203.828 1032.12C191.354 1078.16 211.5 1101.17 223.011 1104.05C234.521 1106.93 308.386 1105.97 306.464 1115.57C304.547 1125.16 254.667 1140.51 226.849 1131.88C226.849 1131.88 257.542 1207.65 297.833 1203.81C338.12 1199.98 350.589 1175.04 375.531 1173.12C400.474 1171.2 418.698 1177.92 406.229 1184.63C393.755 1191.35 351.552 1186.84 331.406 1203.96C311.261 1221.08 294.953 1231.64 332.365 1239.31C369.776 1246.98 436.922 1242.19 450.354 1213.41C463.781 1184.63 463.781 1184.63 463.781 1184.63Z" fill="#9FC1F4"/>
<path d="M239.318 1046.51C239.318 1046.51 440.761 1111.73 463.781 1184.62C463.781 1184.62 462.823 1217.26 482.969 1254.65V1269.05C482.969 1269.05 461.865 1220.12 450.354 1213.41C450.354 1213.41 495.438 1150.1 239.318 1046.51Z" fill="#9FC1F4"/>
<path d="M482.969 1254.65C482.969 1254.65 514.031 1301.84 496.323 1359.26L488.328 1357.1C488.328 1357.1 496.089 1293.86 479.834 1262.05C463.584 1230.24 482.969 1254.65 482.969 1254.65Z" fill="#9FC1F4"/>
<path d="M578.24 1129.07C578.24 1129.07 483.401 1075.96 527.656 1003.9C527.656 1003.9 563.062 959.625 601 948.255C601 948.255 580.766 1055.73 601 1058.26C621.229 1060.79 614.906 936.865 614.906 936.865C614.906 936.865 714.802 888.828 754 892.615C754 892.615 692.036 997.562 712.271 995.042C732.5 992.505 802.047 886.292 802.047 886.292C802.047 886.292 904.469 867.318 920.906 928.026C937.344 988.719 910.792 1019.07 895.62 1022.85C880.443 1026.65 783.083 1025.39 785.609 1038.03C788.141 1050.68 853.891 1070.91 890.563 1059.52C890.563 1059.52 850.099 1159.41 796.99 1154.36C743.88 1149.31 727.443 1116.43 694.568 1113.9C661.693 1111.37 637.667 1120.21 654.104 1129.07C670.542 1137.92 726.182 1131.97 752.734 1154.55C779.286 1177.12 800.781 1191.03 751.469 1201.15C702.156 1211.27 613.641 1204.93 595.937 1167C578.24 1129.07 578.24 1129.07 578.24 1129.07Z" fill="#C0D8FB"/>
<path d="M874.12 946.984C874.12 946.984 608.583 1032.97 578.24 1129.07C578.24 1129.07 579.5 1172.07 552.948 1221.38V1240.35C552.948 1240.35 580.766 1175.85 595.938 1167C595.938 1167 536.51 1083.55 874.12 946.984Z" fill="#9FC1F4"/>
<path d="M552.948 1221.37C552.948 1221.37 512 1283.56 535.344 1359.26L545.88 1356.43C545.88 1356.43 535.651 1273.05 557.078 1231.12C578.5 1189.19 552.948 1221.37 552.948 1221.37Z" fill="#9FC1F4"/>
<path d="M575.042 1523.41C677.64 1523.41 760.807 1440.24 760.807 1337.64H389.276C389.276 1440.24 472.448 1523.41 575.042 1523.41Z" fill="#174F83"/>
<path d="M763.375 1532.86H386.708C386.708 1520.2 396.974 1509.95 409.63 1509.95H740.453C753.115 1509.95 763.375 1520.2 763.375 1532.86Z" fill="#174F83"/>
<path d="M765.031 1343.33H383.167V1337.64H765.031V1343.33Z" fill="#9FC1F4"/>
<path d="M1533.6 2136.16L1534.52 2136.15C1542.03 2136.02 1547.83 2129.88 1547.12 2122.81L1497.04 1622.72L1453.35 1626.63L1525.26 2129.4C1525.81 2133.33 1529.4 2136.24 1533.6 2136.16Z" fill="#8CB4F4"/>
<path d="M1051.43 2136.16L1050.52 2136.15C1043.01 2136.02 1037.21 2129.88 1037.92 2122.81L1088 1622.72L1131.69 1626.63L1059.79 2129.4C1059.22 2133.33 1055.63 2136.24 1051.43 2136.16Z" fill="#8CB4F4"/>
<path d="M1886.86 2136.16L1887.79 2136.15C1895.29 2136.02 1901.09 2129.88 1900.39 2122.81L1850.31 1622.72L1806.61 1626.63L1878.52 2129.4C1879.08 2133.33 1882.67 2136.24 1886.86 2136.16Z" fill="#8CB4F4"/>
<path d="M1066.35 1549.98L977.464 1111.04C966.052 1051.61 1015.3 997.265 1079.24 998.734L1250.67 1002.64C1309.8 1004 1361.21 1043.57 1377.65 1100.4L1507.69 1549.98H1066.35Z" fill="#8CB4F4"/>
<path d="M1120.12 1549.98L1031.23 1111.04C1019.83 1051.61 1069.07 997.265 1133.02 998.734L1304.44 1002.64C1363.57 1004 1414.98 1043.57 1431.43 1100.4L1561.47 1549.98H1120.12Z" fill="#8CB4F4"/>
<path d="M1091.12 1630.04H1769.33C1782.96 1630.04 1794.1 1618.9 1794.1 1605.27V1574.76C1794.1 1561.14 1782.96 1549.98 1769.33 1549.98H1066.35V1605.27C1066.35 1618.9 1077.49 1630.04 1091.12 1630.04Z" fill="#8CB4F4"/>
<path d="M1409.39 1630.04H1841.73C1852.71 1630.04 1861.69 1621.05 1861.69 1610.08V1569.93C1861.69 1558.96 1852.71 1549.98 1841.73 1549.98H1409.39C1398.41 1549.98 1389.43 1558.96 1389.43 1569.93V1610.08C1389.43 1621.05 1398.41 1630.04 1409.39 1630.04Z" fill="#8CB4F4"/>
<path d="M863.985 1544.27V1559.24C863.985 1564.48 862.287 1568.76 860.214 1568.76H313.74C311.672 1568.76 309.974 1564.48 309.974 1559.24V1544.27C309.974 1539.03 311.672 1534.74 313.74 1534.74H860.214C862.287 1534.74 863.985 1539.03 863.985 1544.27Z" fill="#11375A"/>
<path d="M863.985 1544.27V1559.24C863.985 1564.48 862.427 1568.76 860.526 1568.76H426.682C424.781 1568.76 423.224 1564.48 423.224 1559.24V1544.27C423.224 1539.03 424.781 1534.74 426.682 1534.74H860.526C862.427 1534.74 863.985 1539.03 863.985 1544.27Z" fill="#174F83"/>
<path d="M725.672 2134.24H337.708V1568.77H725.672V2134.24Z" fill="#11375A"/>
<path d="M834.396 2134.24H446.432V1568.77H834.396V2134.24Z" fill="#174F83"/>
<path d="M471.021 2099.28H809.813V1588.48H471.021V2099.28ZM813.552 2103.03H467.281V1584.74H813.552V2103.03Z" fill="#B7D3F3"/>
<path d="M811.682 1759.93H469.151V1756.2H811.682V1759.93Z" fill="#B7D3F3"/>
<path d="M811.682 1934.72H469.151V1930.98H811.682V1934.72Z" fill="#B7D3F3"/>
<path d="M675.516 1618.17H611.953C608.87 1618.17 606.349 1615.64 606.349 1612.56C606.349 1609.48 608.87 1606.95 611.953 1606.95H675.516C678.599 1606.95 681.125 1609.48 681.125 1612.56C681.125 1615.64 678.599 1618.17 675.516 1618.17Z" fill="#B7D3F3"/>
<path d="M675.516 1789.09H611.953C608.87 1789.09 606.349 1786.57 606.349 1783.49C606.349 1780.4 608.87 1777.88 611.953 1777.88H675.516C678.599 1777.88 681.125 1780.4 681.125 1783.49C681.125 1786.57 678.599 1789.09 675.516 1789.09Z" fill="#B7D3F3"/>
<path d="M675.516 1967.28H611.953C608.87 1967.28 606.349 1964.76 606.349 1961.67C606.349 1958.59 608.87 1956.07 611.953 1956.07H675.516C678.599 1956.07 681.125 1958.59 681.125 1961.67C681.125 1964.76 678.599 1967.28 675.516 1967.28Z" fill="#B7D3F3"/>
<path d="M2387.02 552.042H2141.1C2129.81 552.042 2120.57 542.802 2120.57 531.521V294.161C2120.57 282.88 2129.81 273.641 2141.1 273.641H2387.02C2398.31 273.641 2407.55 282.88 2407.55 294.161V531.521C2407.55 542.802 2398.31 552.042 2387.02 552.042Z" fill="#C0D8FB"/>
<path d="M2376.36 539.974H2151.76C2141.44 539.974 2133.02 531.547 2133.02 521.229V304.453C2133.02 294.135 2141.44 285.693 2151.76 285.693H2376.36C2386.67 285.693 2395.1 294.135 2395.1 304.453V521.229C2395.1 531.547 2386.67 539.974 2376.36 539.974Z" fill="#2F66B8"/>
<path d="M2258.12 311.104C2258.12 307.828 2260.77 305.161 2264.05 305.161C2267.35 305.161 2270 307.828 2270 311.104C2270 314.385 2267.35 317.052 2264.05 317.052C2260.77 317.052 2258.12 314.385 2258.12 311.104Z" fill="#B7D3F3"/>
<path d="M2306.08 319.505C2307.68 316.64 2311.29 315.614 2314.16 317.198C2317.04 318.802 2318.07 322.411 2316.47 325.281C2314.88 328.161 2311.26 329.187 2308.39 327.588C2305.52 326 2304.48 322.385 2306.08 319.505Z" fill="#B7D3F3"/>
<path d="M2347.17 352.161C2349.93 350.375 2353.61 351.172 2355.39 353.932C2357.17 356.693 2356.37 360.375 2353.61 362.146C2350.86 363.932 2347.19 363.135 2345.4 360.375C2343.62 357.615 2344.41 353.932 2347.17 352.161Z" fill="#B7D3F3"/>
<path d="M2367.53 402.693C2370.81 402.693 2373.47 405.349 2373.47 408.625C2373.47 411.922 2370.81 414.573 2367.53 414.573C2364.24 414.573 2361.59 411.922 2361.59 408.625C2361.59 405.349 2364.24 402.693 2367.53 402.693Z" fill="#B7D3F3"/>
<path d="M2357.14 461.333C2359.45 463.651 2359.45 467.411 2357.14 469.734C2354.81 472.052 2351.05 472.052 2348.73 469.734C2346.41 467.411 2346.41 463.651 2348.73 461.333C2351.05 459.016 2354.81 459.016 2357.14 461.333Z" fill="#B7D3F3"/>
<path d="M2319.81 498.76C2322.14 501.078 2322.14 504.838 2319.81 507.161C2317.49 509.479 2313.72 509.479 2311.4 507.161C2309.08 504.838 2309.08 501.078 2311.4 498.76C2313.72 496.437 2317.49 496.437 2319.81 498.76Z" fill="#B7D3F3"/>
<path d="M2258.12 518.042C2258.12 514.76 2260.77 512.104 2264.05 512.104C2267.35 512.104 2270 514.76 2270 518.042C2270 521.333 2267.35 523.984 2264.05 523.984C2260.77 523.984 2258.12 521.333 2258.12 518.042Z" fill="#B7D3F3"/>
<path d="M2221.85 319.505C2220.26 316.64 2216.64 315.614 2213.76 317.198C2210.9 318.802 2209.86 322.411 2211.45 325.281C2213.05 328.161 2216.67 329.187 2219.55 327.588C2222.41 326 2223.44 322.385 2221.85 319.505Z" fill="#B7D3F3"/>
<path d="M2180.76 352.161C2178 350.375 2174.32 351.172 2172.53 353.932C2170.76 356.693 2171.55 360.375 2174.31 362.146C2177.07 363.932 2180.74 363.135 2182.53 360.375C2184.31 357.615 2183.52 353.932 2180.76 352.161Z" fill="#B7D3F3"/>
<path d="M2160.4 402.693C2157.12 402.693 2154.45 405.349 2154.45 408.625C2154.45 411.922 2157.12 414.573 2160.4 414.573C2163.68 414.573 2166.35 411.922 2166.35 408.625C2166.35 405.349 2163.68 402.693 2160.4 402.693Z" fill="#B7D3F3"/>
<path d="M2170.8 461.333C2168.47 463.651 2168.47 467.411 2170.8 469.734C2173.12 472.052 2176.88 472.052 2179.2 469.734C2181.52 467.411 2181.52 463.651 2179.2 461.333C2176.88 459.016 2173.12 459.016 2170.8 461.333Z" fill="#B7D3F3"/>
<path d="M2208.12 498.76C2205.8 501.078 2205.8 504.838 2208.12 507.161C2210.44 509.479 2214.21 509.479 2216.53 507.161C2218.85 504.838 2218.85 501.078 2216.53 498.76C2214.21 496.437 2210.44 496.437 2208.12 498.76Z" fill="#B7D3F3"/>
<path d="M2262.45 408.625C2262.45 405.349 2265.12 402.693 2268.4 402.693C2271.68 402.693 2274.35 405.349 2274.35 408.625C2274.35 411.922 2271.68 414.573 2268.4 414.573C2265.12 414.573 2262.45 411.922 2262.45 408.625Z" fill="#B7D3F3"/>
<path d="M2269.21 408.625H2267.59V334.375H2269.21V408.625Z" fill="#B7D3F3"/>
<path d="M2269.16 410.437L2266.15 406.615L2305.52 375.708L2308.52 379.531L2269.16 410.437Z" fill="#B7D3F3"/>
<path d="M1657.17 1458.12C1620.48 1521.98 1574.33 1546.62 1574.33 1546.62H1382.35C1382.35 1546.62 1685.16 1409.41 1657.17 1458.12Z" fill="#233862"/>
<path d="M1893.96 2092.55C1891.9 2112.69 1919.91 2117.9 1952.4 2119.86C1984.9 2121.83 1975 2128.39 2019.47 2136.93C2063.93 2145.48 2081.92 2133.48 2085.21 2127.49C2088.14 2122.19 2067.51 2113.61 2045.53 2103.93C2042.77 2102.72 2040 2101.48 2037.24 2100.23C2012.51 2089.04 1998.8 2066.61 1979.65 2045.74C1961.52 2025.97 1944.77 1963.15 1944.77 1963.15L1884.36 1949.56C1884.36 1949.56 1900.76 2006.14 1906.4 2030.27C1909.72 2044.47 1904.43 2060.24 1899.76 2072.24C1897.24 2078.77 1894.69 2085.45 1893.96 2092.55Z" fill="#FFB27D"/>
<path d="M1952.4 2119.86C1984.9 2121.83 1975 2128.39 2019.47 2136.93C2063.93 2145.48 2081.92 2133.48 2085.21 2127.49C2088.14 2122.19 2067.51 2113.61 2045.53 2103.93L2045.19 2104.31C2045.19 2104.31 2013.74 2114.6 1977.69 2104.39C1948.31 2096.07 1920 2078.15 1899.76 2072.24C1897.24 2078.77 1894.69 2085.45 1893.96 2092.55C1891.9 2112.69 1919.91 2117.9 1952.4 2119.86Z" fill="#0F2549"/>
<path d="M1802.44 1392.71C1769.95 1369.9 1554.93 1329.2 1445.2 1317.43L1323.93 1212.15C1323.93 1212.15 1220.69 1365.05 1219.88 1482.03C1219.51 1536.56 1244.62 1541.97 1244.62 1541.98C1244.62 1541.98 1633.41 1544.88 1650.45 1546.62C1678.35 1549.51 1715.14 1619 1724.33 1682.29C1733.53 1745.59 1895.65 2003.02 1895.65 2003.02C1895.65 2003.02 1929.47 2013.85 1945.09 2012.93C1961.91 2011.95 1969.69 2006.31 1969.69 2006.31C1969.69 2006.31 1875.74 1444.19 1802.44 1392.71Z" fill="#233862"/>
<path d="M1793.4 2092.55C1791.33 2112.69 1819.35 2117.9 1851.84 2119.86C1884.33 2121.83 1874.44 2128.39 1918.91 2136.93C1963.37 2145.48 1981.36 2133.48 1984.64 2127.49C1987.57 2122.19 1966.95 2113.61 1944.97 2103.93C1942.21 2102.72 1939.44 2101.48 1936.68 2100.23C1911.95 2089.04 1898.24 2066.61 1879.09 2045.74C1860.96 2025.97 1844.21 1963.15 1844.21 1963.15L1783.8 1949.56C1783.8 1949.56 1800.2 2006.14 1805.84 2030.27C1809.16 2044.47 1803.86 2060.24 1799.2 2072.24C1796.67 2078.77 1794.14 2085.45 1793.4 2092.55Z" fill="#FFB27D"/>
<path d="M1851.84 2119.86C1884.33 2121.83 1874.44 2128.39 1918.91 2136.93C1963.38 2145.48 1981.36 2133.48 1984.64 2127.49C1987.57 2122.19 1966.95 2113.61 1944.97 2103.93L1944.63 2104.31C1944.63 2104.31 1913.19 2114.6 1877.14 2104.39C1847.74 2096.07 1819.44 2078.15 1799.2 2072.24C1796.67 2078.77 1794.14 2085.45 1793.4 2092.55C1791.33 2112.69 1819.35 2117.9 1851.84 2119.86Z" fill="#233862"/>
<path d="M1701 1392.71C1672.76 1372.88 1587.83 1357.51 1494.08 1346.1C1468.16 1342.95 1446.86 1324.1 1440.55 1298.77L1222.48 1212.15C1222.48 1212.15 1119.26 1365.05 1118.43 1482.03C1118.05 1536.56 1143.17 1541.97 1143.17 1541.98C1143.17 1541.98 1531.96 1544.88 1549 1546.62C1576.9 1549.51 1613.69 1619 1622.88 1682.29C1632.08 1745.59 1794.2 2003.02 1794.2 2003.02C1794.2 2003.02 1828.02 2013.85 1843.64 2012.93C1860.47 2011.95 1868.24 2006.31 1868.24 2006.31C1868.24 2006.31 1774.29 1444.19 1701 1392.71Z" fill="#2B478B"/>
<path d="M1409.2 576.896C1379.23 561.146 1333.64 559.026 1326.23 558.026C1237.59 546.12 1184.24 674.922 1181.09 713.948C1175.32 785.896 1137.27 796.854 1083.69 841.906C976.292 932.24 1007.79 1037.21 1066.52 1076.23C1101.74 1099.62 1163.86 1076.21 1163.86 1076.21C1164.74 1076.83 1333.73 981.745 1417.03 935.88C1541.91 918.135 1485.56 616.984 1409.2 576.896Z" fill="#233862"/>
<path d="M1390.71 891.573C1391.1 891.771 1351.32 909.864 1322.61 900.375C1295.6 891.479 1271.81 850.812 1272.19 850.745C1283.92 849.052 1295.83 837.479 1299.16 768.948L1304.35 770.255L1391.64 792.318C1391.64 792.318 1388.19 819.974 1386.76 846.12C1385.56 868.078 1385.81 888.958 1390.71 891.573Z" fill="#FFB27D"/>
<path d="M1391.64 792.318C1391.64 792.318 1391.64 798.016 1388.38 823.734C1339.02 811.281 1317.24 794.922 1301.9 776.188L1391.64 792.318Z" fill="#ED975D"/>
<path d="M1410.27 795.802C1410.27 795.802 1294.83 814.599 1284.24 742.531C1273.64 670.469 1251.6 624.359 1324.85 609.307C1398.1 594.265 1416.51 619.651 1425.9 642.854C1435.28 666.041 1440.02 789.052 1410.27 795.802Z" fill="#FFB27D"/>
<path d="M1410.38 606.292C1410.38 606.292 1357.96 689.042 1311.16 708.641C1264.36 728.24 1241.38 718.281 1241.38 718.281C1241.38 718.281 1262.67 686 1268.21 642.667C1269.84 629.88 1278.17 618.932 1290.12 614.146C1323.71 600.693 1388.67 579.479 1410.38 606.292Z" fill="#233862"/>
<path d="M1364.33 614.292C1364.33 614.292 1395.05 630.042 1407.71 644.812C1419.92 659.052 1434.03 697.708 1433.02 715.068C1433.02 715.068 1448.17 631.88 1416.6 603.281C1383.12 572.948 1364.33 614.292 1364.33 614.292Z" fill="#233862"/>
<path d="M1483.05 1067.63C1479.56 1302.27 1482.09 1253.23 1456.43 1275.49C1450.24 1280.85 1432.86 1284.05 1409.97 1285.56C1338.03 1290.33 1211.56 1278.49 1206.74 1265.19C1190.15 1219.19 1201.86 1204.9 1188.03 1134.45C1186.57 1126.96 1184.79 1118.85 1182.69 1110.03C1171.15 1061.65 1159.92 1045.19 1200.86 967.479C1238.02 897.078 1281.69 839.88 1285.16 841.948C1383.15 900.12 1386.51 851.359 1386.51 851.359C1386.51 851.359 1484.77 953.188 1483.05 1067.63Z" fill="white"/>
<path d="M1386.51 851.359C1386.51 851.359 1486.8 868.359 1498.64 911.76C1510.48 955.172 1580.15 1210.39 1580.15 1210.39C1580.15 1210.39 1528.9 1219.6 1505.21 1195.92C1481.53 1172.24 1422.81 976.229 1422.81 976.229L1386.51 851.359Z" fill="white"/>
<path d="M1409.97 1285.56C1338.03 1290.33 1211.56 1278.49 1206.74 1265.19C1190.15 1219.19 1201.86 1204.9 1188.03 1134.45L1222.72 1036.74C1222.72 1036.74 1216.98 1145.56 1249.08 1174.17C1281.14 1202.8 1380.47 1229.43 1396.07 1253.33C1403.59 1264.81 1408.53 1276.32 1409.97 1285.56Z" fill="#EBF3FF"/>
<path d="M1327.55 1239.8C1327.55 1239.8 1398.52 1224 1409.97 1230.29C1421.43 1236.59 1449.43 1259.53 1452.92 1267.52C1456.43 1275.49 1427.43 1261.45 1418 1258.92C1411.88 1257.28 1395.8 1262.88 1387.84 1265.53C1354.35 1276.69 1333.81 1270.95 1333.81 1270.95L1327.55 1239.8Z" fill="#FFB27D"/>
<path d="M1285.16 841.948C1285.16 841.948 1184.71 847.812 1151.71 893.828C1105.27 958.614 1013.14 1234.68 1065.93 1271.49C1125.4 1312.96 1336.57 1282.33 1336.57 1282.33C1336.57 1282.33 1343.6 1249.49 1333.81 1233.6C1324.04 1217.72 1165.16 1192.05 1157.83 1184.72C1150.49 1177.39 1249.48 1041.72 1249.48 1019.72C1249.48 997.719 1285.16 841.948 1285.16 841.948Z" fill="white"/>
<path d="M1413.41 1250.05C1413.41 1250.05 1428.28 1269.23 1433.16 1271.52C1438.04 1273.81 1441.19 1273.24 1441.19 1273.24L1431.16 1255.2L1413.41 1250.05Z" fill="#FFB27D"/>
<path d="M1409.97 1230.29L1453.21 1251.29C1453.21 1251.29 1451.38 1254.31 1446.05 1254.05C1440.73 1253.81 1427.31 1248.91 1427.31 1248.91L1409.97 1230.29Z" fill="#FFB27D"/>
<path d="M1569.27 1280.07H1368.44C1368.44 1271.23 1375.61 1264.07 1384.45 1264.07H1569.27V1280.07Z" fill="#ED7D2B"/>
<path d="M1568.68 1061.36H1879.17L1804.69 1280.07H1492.2L1568.68 1061.36Z" fill="#ED7D2B"/>
<path d="M1883.74 1061.35L1809.27 1280.07H1496.77L1573.27 1061.35H1883.74Z" fill="#F99746"/>
<path d="M1716.35 1168.69C1714.43 1177.05 1706.08 1183.83 1697.72 1183.83C1689.38 1183.83 1684.16 1177.05 1686.09 1168.69C1688.02 1160.33 1696.36 1153.56 1704.71 1153.56C1713.07 1153.56 1718.28 1160.33 1716.35 1168.69Z" fill="white"/>
<path d="M1299.03 1329.28H2659.68C2665.4 1329.28 2670.04 1324.64 2670.04 1318.92V1290.43C2670.04 1284.71 2665.4 1280.07 2659.68 1280.07H1299.03C1293.31 1280.07 1288.67 1284.71 1288.67 1290.43V1318.92C1288.67 1324.64 1293.31 1329.28 1299.03 1329.28Z" fill="#182D4F"/>
<path d="M2692.98 2139.83L2693.57 2139.76C2700.55 2138.9 2705.48 2132.67 2704.6 2125.85L2583.35 1305.1L2538.96 1306.37L2681.61 2131.57C2682.53 2136.85 2687.55 2140.49 2692.98 2139.83Z" fill="#182D4F"/>
<path d="M1253.47 2139.83L1252.88 2139.76C1245.91 2138.9 1240.97 2132.67 1241.85 2125.85L1363.1 1305.1L1407.49 1306.37L1264.83 2131.57C1263.92 2136.85 1258.91 2140.49 1253.47 2139.83Z" fill="#182D4F"/>
<path d="M1534.16 2139.83L1533.57 2139.76C1526.61 2138.9 1521.67 2132.67 1522.56 2125.85L1643.8 1305.1L1688.2 1306.37L1545.53 2131.57C1544.61 2136.85 1539.6 2140.49 1534.16 2139.83Z" fill="#182D4F"/>
<path d="M3773.88 2146.59H5.51579C2.68245 2146.59 0.364746 2144.27 0.364746 2141.44V2137.23C0.364746 2134.39 2.68245 2132.07 5.51579 2132.07H3773.88C3776.71 2132.07 3779.03 2134.39 3779.03 2137.23V2141.44C3779.03 2144.27 3776.71 2146.59 3773.88 2146.59Z" fill="#2E3552"/>
<path d="M2249.49 2139.16H2490.1C2501.68 2125.04 2497.41 2072.93 2495.67 2055.92C2495.29 2052.49 2495.05 2050.49 2495.05 2050.49C2495.05 2050.49 2412.9 1984.77 2401.6 2035.09C2401.26 2036.67 2400.84 2038.21 2400.39 2039.73C2386.17 2086.8 2322.39 2108.2 2285.56 2114.15C2261.61 2118.04 2252.77 2130.48 2249.49 2139.16Z" fill="#233862"/>
<path d="M2906.03 1357.35C2897.33 1357.35 2493.88 1433.09 2427.15 1515.71C2393.8 1556.97 2388.84 2033.59 2388.84 2033.59C2388.84 2033.59 2430.09 2084.72 2519.17 2055.03C2519.17 2055.03 2584.48 1728.95 2579.67 1630.04C2578.32 1602.69 2855.32 1626.08 2906.03 1612.96C2956.72 1599.84 3080.6 1489.55 3053.29 1435.83C3026 1382.09 2906.03 1357.35 2906.03 1357.35Z" fill="#233862"/>
<path d="M2428.86 1240.64C2428.86 1240.64 2347.49 1241.73 2328.24 1249.98C2309 1258.23 2269.95 1277.16 2280.4 1280.07C2290.85 1282.97 2340.71 1278.88 2351.48 1280.52C2362.26 1282.17 2375.53 1280.07 2382.14 1280.07C2388.73 1280.07 2419.51 1280.07 2419.51 1280.07L2428.86 1240.64Z" fill="#FFB27D"/>
<path d="M2333.72 1045.33C2333.72 1045.33 2305.97 1025.51 2279.03 1021.65C2263.67 1019.45 2248.72 1016.72 2239.69 1013.53C2214.83 1004.77 2165.08 960.052 2168.85 954.802C2180.91 937.984 2238.98 973.573 2249.12 969.745C2259.27 965.932 2229.64 944.865 2239.95 937.469C2245.32 933.589 2257.91 952.984 2268.2 954.932C2282.12 957.563 2293.02 977.229 2297.2 978.255C2305.36 980.255 2341.08 1006.81 2341.08 1006.81L2333.72 1045.33Z" fill="#FFB27D"/>
<path d="M2865.84 813.786C2865.84 813.786 2803.9 832.984 2742.85 1001.07C2681.81 1169.15 2658.62 1178.23 2636.44 1184.83C2614.26 1191.41 2419.51 1230.19 2419.51 1230.19V1280.07H2719.59C2719.59 1280.07 2832.1 1173.04 2865.84 1100.98C2899.57 1028.92 2865.84 813.786 2865.84 813.786Z" fill="#ED7D2B"/>
<path d="M2143.16 2139.16H2383.76C2395.33 2125.04 2391.07 2072.93 2389.32 2055.92C2388.96 2052.49 2388.72 2050.49 2388.72 2050.49C2388.72 2050.49 2306.55 1984.77 2295.27 2035.09C2294.92 2036.67 2294.51 2038.21 2294.05 2039.73C2279.83 2086.8 2216.05 2108.2 2179.23 2114.15C2155.28 2118.04 2146.43 2130.48 2143.16 2139.16Z" fill="#1B3051"/>
<path d="M2787.14 1357.35C2778.44 1357.35 2374.98 1433.09 2308.26 1515.71C2274.91 1556.97 2269.95 2033.59 2269.95 2033.59C2269.95 2033.59 2311.2 2084.72 2400.28 2055.03C2400.28 2055.03 2465.59 1728.95 2460.77 1630.04C2459.43 1602.69 2736.43 1626.08 2787.14 1612.96C2837.83 1599.84 2961.71 1489.55 2934.4 1435.83C2907.1 1382.09 2787.14 1357.35 2787.14 1357.35Z" fill="#2B478B"/>
<path d="M2812.39 867.052C2841.4 864.651 2871.84 856.922 2898.14 848.385C2931.02 837.719 2957.52 822.12 2940.44 792.078C2924.69 764.385 2899.23 702.505 2900.95 651.255L2839.77 700.562L2798.21 734.052C2798.21 734.052 2798.39 753.786 2802.92 788.385C2803.76 794.693 2804.72 801.505 2805.86 808.771C2806.8 814.651 2804.09 820.531 2799.04 823.667C2798.72 823.854 2798.41 824.052 2798.1 824.255C2777.45 837.229 2788.07 869.052 2812.39 867.052Z" fill="#FFB27D"/>
<path d="M2798.21 725.896C2798.21 725.896 2796.08 733.068 2799.73 759.531C2836.79 753.495 2871.43 723.948 2871.43 723.948C2852.56 718.76 2845.69 698.385 2831.65 700.281L2798.21 725.896Z" fill="#ED975D"/>
<path d="M2763.95 731.932C2763.95 731.932 2906.45 755.615 2919.84 666.641C2933.21 577.651 2960.61 520.786 2870.19 501.906C2779.76 483.026 2756.95 514.318 2745.26 542.932C2733.56 571.547 2727.21 723.479 2763.95 731.932Z" fill="#FFB27D"/>
<path d="M2724.29 503.562C2718.17 524.984 2734.55 551.078 2762.04 559.682C2802.85 572.427 2793.84 622.479 2812.2 621.812C2830.56 621.12 2837.97 593.026 2854.37 615.479C2868.37 634.625 2842.73 657.318 2844.49 667.828C2847.52 685.854 2875.76 722.734 2901.2 720.88C2926.65 719.026 2974.27 598.104 2964.73 560.693C2955.21 523.281 2917.12 483.828 2881.08 478.385C2845.03 472.948 2794.96 488.521 2783.4 488.521C2771.84 488.521 2727.6 491.984 2724.29 503.562Z" fill="#2B478B"/>
<path d="M3055.2 937.281C3034.6 854.375 2977.67 767.375 2939.17 767.453C2873.59 767.573 2779.28 784.88 2741.21 878.802C2713.17 947.974 2675.77 1345.88 2718.04 1374.17C2814.67 1438.86 3038.65 1570.93 3078.44 1436.26C3114.91 1312.86 3090.95 1081.16 3055.2 937.281Z" fill="#F99746"/>
<path d="M2895.88 854.771C2877.17 806.094 2816.81 789.266 2775.65 821.292C2753.39 838.615 2726.14 863.281 2693.2 898.349C2570.79 1028.69 2545.91 1027.9 2522.92 1025.2C2499.92 1022.51 2305.68 981.281 2305.68 981.281C2305.68 981.281 2295.73 988.615 2289.88 1000.48C2282.07 1016.32 2286 1027.1 2286 1027.1C2278.39 1022.2 2354.85 1074.91 2392.92 1095.92C2443.17 1123.67 2518.91 1149.69 2549.08 1159.57C2557.63 1162.37 2566.84 1162.23 2575.31 1159.17C2620.08 1143.04 2770.44 1084.24 2892.83 982.198C2925.08 955.307 2913.23 899.906 2895.88 854.771Z" fill="#F99746"/>
<path d="M2945.77 768.255L2930.93 734.786C2930.93 734.786 2798 745.625 2775.65 821.292C2775.65 821.292 2878.69 769.865 2945.77 768.255Z" fill="white"/>
<path d="M3268.52 2136.16L3269.44 2136.15C3276.95 2136.02 3282.73 2129.88 3282.03 2122.81L3231.96 1622.72L3188.27 1626.63L3260.16 2129.4C3260.73 2133.33 3264.32 2136.24 3268.52 2136.16Z" fill="#8CB4F4"/>
<path d="M3010.77 2136.16L3011.69 2136.15C3019.2 2136.02 3025 2129.88 3024.29 2122.81L2974.21 1622.72L2930.52 1626.63L3002.43 2129.4C3002.98 2133.33 3006.57 2136.24 3010.77 2136.16Z" fill="#8CB4F4"/>
<path d="M2526.91 2136.16L2525.98 2136.15C2518.49 2136.02 2512.69 2129.88 2513.4 2122.81L2563.47 1622.72L2607.16 1626.63L2535.27 2129.4C2534.71 2133.33 2531.1 2136.24 2526.91 2136.16Z" fill="#73A2E5"/>
<path d="M3254.38 1551.88L3301.9 1134.2C3308.12 1074.02 3287.98 1015.07 3201.12 1010.51L3048.32 1001.2C2957.74 997.469 2916.85 1072.84 2905.39 1130.86L2814.67 1590.02L3254.38 1551.88Z" fill="#8CB4F4"/>
<path d="M3228.83 1630.04H2550.63C2537 1630.04 2525.84 1618.9 2525.84 1605.27V1574.76C2525.84 1561.14 2537 1549.98 2550.63 1549.98H3253.6V1605.27C3253.6 1618.9 3242.45 1630.04 3228.83 1630.04Z" fill="#73A2E5"/>
<path d="M3234.36 1630.04H2833.91C2823.33 1630.04 2814.67 1621.38 2814.67 1610.8V1569.23C2814.67 1558.64 2823.33 1549.98 2833.91 1549.98H3253.6V1610.8C3253.6 1621.38 3244.95 1630.04 3234.36 1630.04Z" fill="#8CB4F4"/>
</g>
<defs>
<clipPath id="clip0_101_102">
<rect width="3780" height="2147" fill="white"/>
</clipPath>
</defs>
</svg>
